<?xml version="1.0" encoding="UTF-8" ?>
<!DOCTYPE svg PUBLIC "-//W3C//DTD SVG 1.1//EN" "http://www.w3.org/Graphics/SVG/1.1/DTD/svg11.dtd">
<svg width="423pt" height="177pt" viewBox="0 0 423 177" version="1.1" xmlns="http://www.w3.org/2000/svg">
<g id="#ffffffff">
<path fill="#ffffff" opacity="1.00" d=" M 0.00 0.00 L 423.00 0.00 L 423.00 177.00 L 0.00 177.00 L 0.00 0.00 M 9.29 5.22 C 9.73 5.86 9.73 5.86 9.29 5.22 M 29.25 5.26 C 29.77 5.84 29.77 5.84 29.25 5.26 M 49.28 5.26 C 49.80 5.84 49.80 5.84 49.28 5.26 M 69.16 5.24 C 69.75 5.74 69.75 5.74 69.16 5.24 M 89.30 5.17 C 89.66 5.86 89.66 5.86 89.30 5.17 M 109.20 5.26 C 109.81 5.75 109.81 5.75 109.20 5.26 M 129.18 5.29 C 129.81 5.76 129.81 5.76 129.18 5.29 M 149.24 5.29 C 149.81 5.83 149.81 5.83 149.24 5.29 M 169.20 5.25 C 169.74 5.82 169.74 5.82 169.20 5.25 M 189.28 5.22 C 189.85 5.75 189.85 5.75 189.28 5.22 M 209.22 5.33 C 209.85 5.78 209.85 5.78 209.22 5.33 M 229.25 5.23 C 229.72 5.86 229.72 5.86 229.25 5.23 M 249.29 5.20 C 249.78 5.81 249.78 5.81 249.29 5.20 M 269.19 5.30 C 269.78 5.81 269.78 5.81 269.19 5.30 M 289.23 5.27 C 289.80 5.80 289.80 5.80 289.23 5.27 M 309.25 5.31 C 309.91 5.71 309.91 5.71 309.25 5.31 M 329.30 5.15 C 329.80 5.75 329.80 5.75 329.30 5.15 M 349.24 5.29 C 349.86 5.76 349.86 5.76 349.24 5.29 M 369.22 5.26 C 369.82 5.75 369.82 5.75 369.22 5.26 M 389.27 5.29 C 389.81 5.84 389.81 5.84 389.27 5.29 M 9.29 25.26 C 9.83 25.82 9.83 25.82 9.29 25.26 M 29.19 25.28 C 29.84 25.71 29.84 25.71 29.19 25.28 M 49.27 25.23 C 49.80 25.80 49.80 25.80 49.27 25.23 M 69.18 25.28 C 69.79 25.75 69.79 25.75 69.18 25.28 M 89.26 25.22 C 89.79 25.80 89.79 25.80 89.26 25.22 M 109.34 25.17 C 109.67 25.88 109.67 25.88 109.34 25.17 M 129.24 25.24 C 129.72 25.86 129.72 25.86 129.24 25.24 M 149.24 25.32 C 149.84 25.82 149.84 25.82 149.24 25.32 M 169.24 25.21 C 169.74 25.82 169.74 25.82 169.24 25.21 M 189.22 25.25 C 189.79 25.78 189.79 25.78 189.22 25.25 M 209.25 25.19 C 209.77 25.77 209.77 25.77 209.25 25.19 M 229.22 25.33 C 229.86 25.78 229.86 25.78 229.22 25.33 M 249.22 25.24 C 249.82 25.73 249.82 25.73 249.22 25.24 M 269.17 25.27 C 269.80 25.73 269.80 25.73 269.17 25.27 M 289.21 25.25 C 289.75 25.81 289.75 25.81 289.21 25.25 M 309.23 25.28 C 309.80 25.81 309.80 25.81 309.23 25.28 M 329.22 25.19 C 329.77 25.73 329.77 25.73 329.22 25.19 M 349.31 25.23 C 349.73 25.89 349.73 25.89 349.31 25.23 M 369.23 25.26 C 369.82 25.77 369.82 25.77 369.23 25.26 M 389.23 25.23 C 389.82 25.74 389.82 25.74 389.23 25.23 M 9.30 45.29 C 9.89 45.81 9.89 45.81 9.30 45.29 M 29.22 45.23 C 29.78 45.78 29.78 45.78 29.22 45.23 M 49.25 45.24 C 49.70 45.89 49.70 45.89 49.25 45.24 M 69.29 45.17 C 69.74 45.81 69.74 45.81 69.29 45.17 M 89.20 45.21 C 89.76 45.75 89.76 45.75 89.20 45.21 M 109.24 45.25 C 109.77 45.82 109.77 45.82 109.24 45.25 M 129.25 45.23 C 129.83 45.75 129.83 45.75 129.25 45.23 M 149.25 45.28 C 149.87 45.75 149.87 45.75 149.25 45.28 M 169.20 45.22 C 169.72 45.81 169.72 45.81 169.20 45.22 M 189.25 45.21 C 189.80 45.75 189.80 45.75 189.25 45.21 M 209.27 45.30 C 209.84 45.83 209.84 45.83 209.27 45.30 M 229.31 45.26 C 229.84 45.83 229.84 45.83 229.31 45.26 M 249.25 45.32 C 249.89 45.75 249.89 45.75 249.25 45.32 M 269.26 45.28 C 269.76 45.88 269.76 45.88 269.26 45.28 M 289.19 45.29 C 289.76 45.82 289.76 45.82 289.19 45.29 M 309.17 45.37 C 309.80 45.83 309.80 45.83 309.17 45.37 M 329.24 45.32 C 329.88 45.76 329.88 45.76 329.24 45.32 M 349.23 45.24 C 349.80 45.78 349.80 45.78 349.23 45.24 M 369.20 45.29 C 369.82 45.77 369.82 45.77 369.20 45.29 M 389.30 45.18 C 389.78 45.79 389.78 45.79 389.30 45.18 M 133.09 45.48 C 133.07 79.44 133.10 113.40 133.08 147.36 C 133.75 147.37 135.10 147.40 135.77 147.42 C 135.63 113.60 135.91 79.78 135.63 45.97 C 135.00 45.85 133.73 45.60 133.09 45.48 M 45.11 53.68 C 43.01 55.95 41.42 59.54 43.63 62.30 C 45.81 65.40 50.35 65.29 52.72 67.92 C 50.48 67.32 48.15 67.85 45.87 67.69 C 42.19 67.64 38.87 65.87 35.57 64.45 C 35.67 65.02 35.88 66.17 35.98 66.74 C 41.89 70.76 49.39 70.21 56.04 68.73 C 62.07 68.89 68.83 68.98 73.69 64.78 C 74.63 64.07 76.53 61.85 74.27 61.42 C 70.28 65.39 64.77 66.84 59.26 66.64 C 61.77 64.63 64.89 62.48 65.32 59.04 C 65.81 56.54 62.81 54.19 60.61 55.72 C 57.44 57.39 56.68 61.24 55.66 64.35 C 53.02 60.17 50.67 54.37 45.11 53.68 M 97.92 64.47 C 96.68 69.06 95.26 73.60 94.01 78.19 C 89.37 78.19 84.73 78.18 80.09 78.20 C 79.89 75.19 79.63 72.18 79.42 69.17 C 72.09 69.73 64.76 70.30 57.42 70.88 C 57.63 73.36 57.83 75.83 58.04 78.30 C 65.32 78.21 72.59 78.34 79.87 78.22 C 80.26 82.47 80.67 86.71 81.02 90.96 C 73.76 91.66 66.46 91.97 59.21 92.83 C 58.73 87.84 58.87 82.73 57.61 77.86 C 57.26 77.96 56.57 78.16 56.22 78.26 C 55.41 83.10 56.83 88.07 57.03 92.96 C 49.73 93.64 42.40 94.01 35.11 94.78 C 34.59 89.29 34.17 83.78 33.86 78.27 C 40.84 77.98 47.96 78.85 54.86 77.85 C 56.60 75.98 55.16 73.30 55.31 71.08 C 48.01 71.64 40.71 72.16 33.42 72.76 C 33.51 74.57 33.64 76.37 33.74 78.17 C 28.14 78.19 22.53 78.21 16.93 78.15 C 21.31 93.08 25.72 107.99 30.27 122.86 C 49.39 122.80 68.51 123.10 87.64 122.98 C 92.66 105.53 98.11 88.21 103.25 70.80 C 108.93 70.81 114.61 70.84 120.29 70.78 C 120.29 68.66 120.32 66.54 120.41 64.43 C 112.91 64.50 105.41 64.43 97.92 64.47 M 9.28 65.21 C 9.76 65.81 9.76 65.81 9.28 65.21 M 29.26 65.17 C 29.75 65.78 29.75 65.78 29.26 65.17 M 89.28 65.30 C 89.84 65.84 89.84 65.84 89.28 65.30 M 129.22 65.24 C 129.77 65.80 129.77 65.80 129.22 65.24 M 149.65 65.41 C 149.00 65.70 147.69 66.28 147.04 66.58 C 147.10 76.88 147.06 87.18 147.06 97.48 C 154.61 97.45 162.17 97.48 169.72 97.46 C 169.71 95.48 169.70 93.50 169.70 91.52 C 164.55 91.55 159.41 91.51 154.27 91.56 C 154.17 83.11 154.30 74.65 154.20 66.19 C 153.30 66.25 151.50 66.38 150.60 66.44 C 150.37 66.18 149.89 65.66 149.65 65.41 M 169.24 65.31 C 169.82 65.82 169.82 65.82 169.24 65.31 M 189.17 65.33 C 189.86 65.70 189.86 65.70 189.17 65.33 M 209.22 65.24 C 209.75 65.81 209.75 65.81 209.22 65.24 M 229.25 65.26 C 229.79 65.82 229.79 65.82 229.25 65.26 M 249.22 65.31 C 249.83 65.78 249.83 65.78 249.22 65.31 M 256.32 97.49 C 258.62 97.47 260.93 97.46 263.24 97.46 C 263.23 86.55 263.24 75.64 263.24 64.73 C 260.93 64.71 258.63 64.70 256.34 64.68 C 256.26 75.62 256.30 86.56 256.32 97.49 M 269.17 65.33 C 269.83 65.74 269.83 65.74 269.17 65.33 M 289.57 65.51 C 287.20 67.11 284.22 68.01 282.53 70.44 C 280.07 73.82 280.47 79.41 284.12 81.81 C 288.29 84.73 293.81 84.29 298.11 86.90 C 299.82 88.22 298.82 91.27 296.77 91.62 C 291.93 93.23 286.85 91.39 282.56 89.11 C 281.79 90.91 281.02 92.70 280.25 94.49 C 286.45 98.01 294.49 99.28 301.09 96.14 C 305.93 93.99 307.90 86.92 304.09 82.96 C 299.94 79.07 293.69 79.68 288.90 77.03 C 287.52 75.57 288.05 72.80 290.03 72.20 C 294.20 70.55 298.74 72.12 302.62 73.87 C 303.36 72.04 304.10 70.21 304.86 68.38 C 300.50 66.24 295.59 65.26 290.76 66.01 C 290.47 65.88 289.87 65.63 289.57 65.51 M 309.31 65.33 C 309.92 65.81 309.92 65.81 309.31 65.33 M 310.77 64.71 C 310.76 75.63 310.77 86.55 310.76 97.46 C 313.00 97.46 315.23 97.47 317.47 97.47 C 317.64 92.67 316.99 87.79 317.94 83.05 C 318.75 78.55 326.35 77.56 327.80 82.09 C 328.84 87.14 328.08 92.36 328.29 97.48 C 330.60 97.47 332.92 97.46 335.23 97.46 C 334.97 91.24 335.99 84.81 334.25 78.74 C 331.58 72.29 322.28 71.70 317.41 75.96 C 317.50 72.21 317.47 68.46 317.46 64.71 C 315.23 64.71 313.00 64.71 310.77 64.71 M 329.32 65.25 C 329.82 65.84 329.82 65.84 329.32 65.25 M 349.21 65.22 C 349.77 65.76 349.77 65.76 349.21 65.22 M 369.23 65.27 C 369.75 65.85 369.75 65.85 369.23 65.27 M 389.32 65.26 C 389.84 65.84 389.84 65.84 389.32 65.26 M 180.46 73.75 C 173.37 75.33 169.44 83.86 172.46 90.38 C 176.04 99.06 189.47 100.21 195.09 93.00 C 198.96 88.18 198.36 80.35 193.58 76.35 C 190.05 73.22 184.90 72.64 180.46 73.75 M 203.59 77.51 C 199.83 81.67 199.64 88.56 203.17 92.92 C 208.44 99.54 220.37 99.45 224.78 91.87 C 223.03 90.89 221.28 89.93 219.51 88.98 C 217.80 90.77 215.63 92.75 212.91 91.97 C 206.70 91.54 205.73 81.56 211.29 79.35 C 214.31 77.82 217.59 79.54 219.51 81.96 C 221.28 81.01 223.04 80.05 224.81 79.09 C 220.54 71.70 209.05 71.36 203.59 77.51 M 227.98 75.93 C 228.79 77.50 229.60 79.07 230.42 80.64 C 234.43 78.19 242.19 76.96 243.17 83.24 C 238.45 83.20 233.64 83.40 229.21 85.19 C 227.54 87.95 226.14 91.78 228.53 94.58 C 232.25 99.04 239.86 98.73 243.71 94.55 C 243.65 95.27 243.52 96.73 243.46 97.46 C 245.62 97.46 247.78 97.47 249.94 97.48 C 249.73 91.71 250.46 85.86 249.40 80.14 C 248.78 77.04 246.22 74.66 243.23 73.84 C 238.12 72.47 232.57 73.38 227.98 75.93 M 349.48 73.62 C 341.98 74.97 337.76 84.04 341.16 90.76 C 344.97 98.96 357.63 100.06 363.32 93.32 C 367.80 88.32 366.90 79.50 361.29 75.70 C 357.93 73.21 353.48 72.79 349.48 73.62 M 377.35 76.07 C 377.39 75.44 377.47 74.17 377.51 73.54 C 375.36 73.53 373.21 73.53 371.06 73.52 C 371.06 84.33 371.10 95.14 371.04 105.96 C 373.27 105.94 375.50 105.93 377.73 105.93 C 377.69 102.31 377.71 98.69 377.66 95.07 C 381.79 98.55 388.13 98.58 392.38 95.31 C 398.65 90.58 398.41 79.59 391.86 75.22 C 387.50 72.26 381.33 72.62 377.35 76.07 M 9.17 85.29 C 9.76 85.80 9.76 85.80 9.17 85.29 M 49.30 85.31 C 49.87 85.84 49.87 85.84 49.30 85.31 M 69.30 85.21 C 69.82 85.80 69.82 85.80 69.30 85.21 M 109.29 85.22 C 109.77 85.84 109.77 85.84 109.29 85.22 M 129.25 85.17 C 129.74 85.78 129.74 85.78 129.25 85.17 M 169.32 85.19 C 169.74 85.85 169.74 85.85 169.32 85.19 M 209.23 85.23 C 209.74 85.81 209.74 85.81 209.23 85.23 M 269.24 85.18 C 269.76 85.76 269.76 85.76 269.24 85.18 M 289.28 85.26 C 289.79 85.85 289.79 85.85 289.28 85.26 M 309.25 85.26 C 309.77 85.85 309.77 85.85 309.25 85.26 M 369.23 85.21 C 369.70 85.82 369.70 85.82 369.23 85.21 M 9.28 105.24 C 9.78 105.84 9.78 105.84 9.28 105.24 M 109.30 105.30 C 109.86 105.84 109.86 105.84 109.30 105.30 M 129.29 105.28 C 129.85 105.82 129.85 105.82 129.29 105.28 M 149.25 105.23 C 149.81 105.77 149.81 105.77 149.25 105.23 M 169.27 105.27 C 169.81 105.82 169.81 105.82 169.27 105.27 M 189.25 105.26 C 189.80 105.80 189.80 105.80 189.25 105.26 M 209.19 105.29 C 209.78 105.81 209.78 105.81 209.19 105.29 M 229.24 105.28 C 229.79 105.83 229.79 105.83 229.24 105.28 M 249.22 105.25 C 249.79 105.78 249.79 105.78 249.22 105.25 M 269.20 105.29 C 269.85 105.72 269.85 105.72 269.20 105.29 M 289.32 105.28 C 289.84 105.86 289.84 105.86 289.32 105.28 M 309.21 105.32 C 309.85 105.77 309.85 105.77 309.21 105.32 M 329.34 105.21 C 329.82 105.82 329.82 105.82 329.34 105.21 M 349.23 105.21 C 349.75 105.78 349.75 105.78 349.23 105.21 M 369.21 105.26 C 369.79 105.78 369.79 105.78 369.21 105.26 M 389.27 105.27 C 389.81 105.83 389.81 105.83 389.27 105.27 M 146.93 115.26 C 148.53 118.85 150.01 122.50 151.64 126.08 C 152.04 127.79 153.35 128.52 155.02 128.53 C 156.93 124.10 158.82 119.67 160.79 115.27 C 160.19 115.27 158.99 115.28 158.39 115.28 C 156.91 118.72 155.41 122.15 153.94 125.60 C 152.47 122.18 150.98 118.77 149.54 115.34 C 148.89 115.32 147.58 115.28 146.93 115.26 M 203.07 114.72 C 203.07 119.25 203.07 123.78 203.07 128.31 C 203.67 128.30 204.87 128.29 205.47 128.29 C 205.46 123.77 205.47 119.26 205.46 114.74 C 204.87 114.73 203.67 114.72 203.07 114.72 M 217.37 118.12 C 216.91 118.66 216.00 119.75 215.55 120.30 C 216.10 120.35 217.21 120.45 217.76 120.50 C 217.76 123.09 217.76 125.68 217.76 128.27 C 218.30 128.28 219.38 128.31 219.91 128.32 C 219.93 125.73 219.82 123.13 220.13 120.56 C 220.74 120.51 221.95 120.41 222.56 120.37 C 222.64 119.93 222.80 119.05 222.88 118.61 C 222.07 118.57 220.46 118.50 219.65 118.46 C 220.12 116.84 221.37 116.22 223.00 116.27 L 223.38 114.64 C 220.67 114.36 217.92 115.11 217.37 118.12 M 310.15 114.74 C 309.90 118.45 310.40 122.23 309.55 125.90 C 310.05 127.00 310.58 128.10 311.13 129.19 C 312.68 124.57 311.76 119.54 311.86 114.74 C 311.43 114.74 310.58 114.74 310.15 114.74 M 257.05 115.27 C 257.07 119.61 257.07 123.95 257.07 128.30 C 260.20 128.29 263.34 128.29 266.47 128.29 L 266.47 126.53 C 264.13 126.53 261.79 126.53 259.46 126.54 C 259.47 122.80 259.46 119.05 259.48 115.31 C 258.87 115.30 257.66 115.28 257.05 115.27 M 242.46 119.65 C 242.01 119.17 241.09 118.22 240.64 117.75 C 239.73 121.19 240.11 124.79 240.08 128.31 C 240.67 128.30 241.85 128.29 242.43 128.29 C 242.47 126.14 242.34 123.97 242.66 121.84 C 243.63 121.17 244.66 120.57 245.74 120.07 C 245.68 119.60 245.58 118.66 245.53 118.19 C 244.50 118.67 243.48 119.16 242.46 119.65 M 164.38 119.36 C 160.98 121.44 161.85 127.68 165.99 128.22 C 168.97 129.03 172.78 127.46 172.80 123.99 C 173.55 119.53 167.74 116.80 164.38 119.36 M 178.42 119.33 C 175.59 121.10 175.50 125.84 178.39 127.60 C 180.95 129.07 184.11 128.28 186.34 126.56 C 184.40 124.97 182.15 126.92 180.02 126.35 C 177.73 125.06 178.13 120.72 180.93 120.42 C 182.75 120.55 184.73 121.89 186.25 120.26 C 183.99 118.75 180.89 117.54 178.42 119.33 M 188.96 119.74 C 191.09 121.80 195.19 118.80 196.28 122.54 C 193.47 122.65 190.45 122.59 188.54 125.02 C 189.72 129.62 194.79 127.97 198.28 128.24 C 198.08 125.45 198.72 122.35 197.31 119.80 C 195.07 117.45 191.50 118.58 188.96 119.74 M 227.41 119.33 C 224.81 120.99 224.53 125.19 226.87 127.19 C 229.82 129.63 235.73 128.38 235.83 123.98 C 236.54 119.53 230.79 116.83 227.41 119.33 M 271.36 119.27 C 268.92 120.53 269.23 123.51 269.04 125.81 C 271.61 129.11 278.22 129.61 279.48 124.92 C 281.09 120.27 275.12 116.60 271.36 119.27 M 283.85 126.25 C 285.48 129.08 289.16 128.31 291.81 127.78 C 291.85 127.26 291.93 126.23 291.97 125.71 C 291.24 125.61 289.77 125.39 289.04 125.28 L 289.66 127.01 C 288.22 126.39 285.19 126.25 285.47 124.00 C 285.14 122.48 285.87 120.86 287.44 120.45 C 289.34 120.51 291.21 121.00 293.12 121.06 C 291.80 119.59 290.16 118.01 287.98 118.44 C 284.12 118.38 281.75 123.11 283.85 126.25 M 295.70 119.79 C 297.66 121.08 300.05 120.33 302.23 120.54 C 302.38 121.07 302.68 122.13 302.83 122.67 C 300.05 122.50 294.80 122.58 296.18 126.80 C 298.02 129.44 302.16 127.77 304.96 128.27 C 304.87 125.64 305.19 122.93 304.50 120.36 C 302.59 117.30 298.33 118.45 295.70 119.79 M 9.26 125.26 C 9.79 125.83 9.79 125.83 9.26 125.26 M 29.18 125.29 C 29.84 125.71 29.84 125.71 29.18 125.29 M 49.26 125.23 C 49.77 125.81 49.77 125.81 49.26 125.23 M 69.24 125.24 C 69.72 125.86 69.72 125.86 69.24 125.24 M 89.22 125.33 C 89.82 125.82 89.82 125.82 89.22 125.33 M 109.27 125.19 C 109.73 125.82 109.73 125.82 109.27 125.19 M 129.21 125.30 C 129.80 125.80 129.80 125.80 129.21 125.30 M 149.30 125.23 C 149.84 125.79 149.84 125.79 149.30 125.23 M 209.21 125.31 C 209.79 125.83 209.79 125.83 209.21 125.31 M 249.20 125.21 C 249.76 125.75 249.76 125.75 249.20 125.21 M 329.31 125.18 C 329.73 125.83 329.73 125.83 329.31 125.18 M 349.22 125.26 C 349.86 125.71 349.86 125.71 349.22 125.26 M 369.27 125.30 C 369.89 125.78 369.89 125.78 369.27 125.30 M 389.28 125.26 C 389.77 125.86 389.77 125.86 389.28 125.26 M 37.36 126.44 C 32.80 128.49 32.55 135.71 36.96 138.07 C 41.23 140.95 47.53 137.07 47.02 132.00 C 46.92 127.36 41.42 124.24 37.36 126.44 M 74.37 126.51 C 69.82 128.64 69.71 135.83 74.18 138.11 C 78.40 140.97 84.71 136.96 84.07 131.96 C 84.05 127.27 78.38 124.22 74.37 126.51 M 9.29 145.22 C 9.74 145.85 9.74 145.85 9.29 145.22 M 29.22 145.28 C 29.82 145.79 29.82 145.79 29.22 145.28 M 49.22 145.23 C 49.78 145.78 49.78 145.78 49.22 145.23 M 69.23 145.29 C 69.75 145.88 69.75 145.88 69.23 145.29 M 89.29 145.22 C 89.78 145.83 89.78 145.83 89.29 145.22 M 109.27 145.27 C 109.82 145.82 109.82 145.82 109.27 145.27 M 129.21 145.33 C 129.79 145.84 129.79 145.84 129.21 145.33 M 149.29 145.25 C 149.79 145.84 149.79 145.84 149.29 145.25 M 169.21 145.33 C 169.83 145.80 169.83 145.80 169.21 145.33 M 189.19 145.28 C 189.81 145.74 189.81 145.74 189.19 145.28 M 209.29 145.21 C 209.75 145.83 209.75 145.83 209.29 145.21 M 229.30 145.20 C 229.82 145.78 229.82 145.78 229.30 145.20 M 249.24 145.32 C 249.84 145.82 249.84 145.82 249.24 145.32 M 269.23 145.26 C 269.78 145.80 269.78 145.80 269.23 145.26 M 289.25 145.22 C 289.75 145.82 289.75 145.82 289.25 145.22 M 309.33 145.20 C 309.72 145.87 309.72 145.87 309.33 145.20 M 329.18 145.20 C 329.77 145.70 329.77 145.70 329.18 145.20 M 349.24 145.26 C 349.82 145.78 349.82 145.78 349.24 145.26 M 369.29 145.25 C 369.88 145.75 369.88 145.75 369.29 145.25 M 389.27 145.23 C 389.74 145.85 389.74 145.85 389.27 145.23 M 9.24 165.27 C 9.80 165.82 9.80 165.82 9.24 165.27 M 29.29 165.27 C 29.84 165.82 29.84 165.82 29.29 165.27 M 49.19 165.33 C 49.83 165.78 49.83 165.78 49.19 165.33 M 69.25 165.28 C 69.87 165.75 69.87 165.75 69.25 165.28 M 89.26 165.23 C 89.83 165.76 89.83 165.76 89.26 165.23 M 109.25 165.22 C 109.78 165.79 109.78 165.79 109.25 165.22 M 129.22 165.22 C 129.76 165.78 129.76 165.78 129.22 165.22 M 149.30 165.22 C 149.73 165.86 149.73 165.86 149.30 165.22 M 169.20 165.25 C 169.78 165.77 169.78 165.77 169.20 165.25 M 189.31 165.26 C 189.83 165.84 189.83 165.84 189.31 165.26 M 209.25 165.20 C 209.74 165.80 209.74 165.80 209.25 165.20 M 229.32 165.28 C 229.81 165.88 229.81 165.88 229.32 165.28 M 249.27 165.25 C 249.75 165.86 249.75 165.86 249.27 165.25 M 269.25 165.28 C 269.78 165.85 269.78 165.85 269.25 165.28 M 289.29 165.22 C 289.71 165.88 289.71 165.88 289.29 165.22 M 309.24 165.30 C 309.88 165.75 309.88 165.75 309.24 165.30 M 329.28 165.23 C 329.80 165.81 329.80 165.81 329.28 165.23 M 349.23 165.24 C 349.75 165.82 349.75 165.82 349.23 165.24 M 369.35 165.23 C 369.72 165.92 369.72 165.92 369.35 165.23 M 389.22 165.26 C 389.83 165.74 389.83 165.74 389.22 165.26 Z" />
<path fill="#ffffff" opacity="1.00" d=" M 45.12 60.64 C 44.00 58.87 45.16 56.87 46.49 55.60 C 49.39 58.33 51.77 61.57 53.53 65.15 C 50.61 63.96 47.19 63.23 45.12 60.64 Z" />
<path fill="#ffffff" opacity="1.00" d=" M 57.87 65.02 C 58.45 61.92 59.55 58.80 62.21 56.87 C 64.78 60.27 60.14 63.03 57.87 65.02 Z" />
<path fill="#ffffff" opacity="1.00" d=" M 182.22 79.30 C 185.78 77.64 190.37 80.29 190.45 84.31 C 188.71 85.10 189.75 86.58 190.53 87.66 C 189.35 90.62 186.27 92.91 182.98 91.92 C 177.31 90.58 176.83 81.35 182.22 79.30 Z" />
<path fill="#ffffff" opacity="1.00" d=" M 350.36 79.46 C 353.87 77.55 358.67 79.92 359.06 83.95 C 360.24 88.17 356.49 93.15 351.93 91.93 C 346.06 91.20 345.21 81.78 350.36 79.46 M 349.23 85.31 C 349.83 85.80 349.83 85.80 349.23 85.31 Z" />
<path fill="#ffffff" opacity="1.00" d=" M 381.30 79.37 C 383.81 78.16 387.27 78.96 388.80 81.35 C 391.23 85.28 389.43 92.20 384.01 92.09 C 377.21 92.59 375.43 81.86 381.30 79.37 Z" />
<path fill="#ffffff" opacity="1.00" d=" M 235.37 92.63 C 233.10 91.68 233.54 88.00 236.01 87.64 C 238.46 87.30 240.94 87.47 243.40 87.49 C 243.59 91.69 239.04 94.44 235.37 92.63 Z" />
<path fill="#ffffff" opacity="1.00" d=" M 59.25 95.04 C 66.58 94.43 73.91 93.97 81.23 93.26 C 81.79 100.56 82.25 107.88 83.05 115.17 C 75.72 115.82 68.37 116.12 61.04 116.75 C 60.37 109.52 59.94 102.27 59.25 95.04 M 67.46 98.68 C 62.29 101.26 62.73 109.86 68.21 111.79 C 73.56 114.64 80.33 108.69 78.22 103.03 C 77.25 98.45 71.33 96.21 67.46 98.68 Z" />
<path fill="#ffffff" opacity="1.00" d=" M 35.25 96.77 C 42.58 96.27 49.91 95.89 57.23 95.25 C 57.72 102.49 58.12 109.74 58.73 116.97 C 51.51 117.62 44.26 118.06 37.04 118.75 C 36.37 111.43 35.95 104.09 35.25 96.77 M 43.40 100.42 C 38.67 102.84 38.31 110.33 42.81 113.16 C 47.13 116.35 54.06 113.34 54.51 107.94 C 55.57 102.10 48.43 97.23 43.40 100.42 Z" />
<path fill="#ffffff" opacity="1.00" d=" M 165.71 126.56 C 164.52 124.57 163.77 120.82 166.97 120.42 C 169.43 119.72 170.32 122.19 170.86 124.05 C 170.30 124.65 169.19 125.86 168.63 126.46 C 167.90 126.48 166.44 126.53 165.71 126.56 Z" />
<path fill="#ffffff" opacity="1.00" d=" M 227.49 121.70 C 229.31 119.99 233.45 119.77 233.53 123.00 C 234.16 125.62 231.40 126.66 229.38 127.01 L 229.96 125.38 C 226.99 126.90 227.97 123.30 227.49 121.70 Z" />
<path fill="#ffffff" opacity="1.00" d=" M 272.29 121.17 C 275.03 118.30 279.30 122.90 276.61 125.63 C 273.87 128.88 269.23 123.86 272.29 121.17 Z" />
<path fill="#ffffff" opacity="1.00" d=" M 191.58 124.41 C 193.13 124.34 194.69 124.29 196.25 124.27 C 195.74 126.66 193.52 127.15 191.41 126.70 C 191.45 126.13 191.54 124.99 191.58 124.41 Z" />
<path fill="#ffffff" opacity="1.00" d=" M 298.07 124.56 C 299.66 124.39 301.26 124.26 302.87 124.16 C 302.75 124.76 302.50 125.96 302.38 126.56 C 300.50 126.89 297.87 127.25 298.07 124.56 Z" />
</g>
<g id="#404040ff">
<path fill="#404040" opacity="1.00" d=" M 9.29 5.22 C 9.73 5.86 9.73 5.86 9.29 5.22 Z" />
<path fill="#404040" opacity="1.00" d=" M 29.25 5.26 C 29.77 5.84 29.77 5.84 29.25 5.26 Z" />
<path fill="#404040" opacity="1.00" d=" M 49.28 5.26 C 49.80 5.84 49.80 5.84 49.28 5.26 Z" />
<path fill="#404040" opacity="1.00" d=" M 69.16 5.24 C 69.75 5.74 69.75 5.74 69.16 5.24 Z" />
<path fill="#404040" opacity="1.00" d=" M 89.30 5.17 C 89.66 5.86 89.66 5.86 89.30 5.17 Z" />
<path fill="#404040" opacity="1.00" d=" M 109.20 5.26 C 109.81 5.75 109.81 5.75 109.20 5.26 Z" />
<path fill="#404040" opacity="1.00" d=" M 129.18 5.29 C 129.81 5.76 129.81 5.76 129.18 5.29 Z" />
<path fill="#404040" opacity="1.00" d=" M 149.24 5.29 C 149.81 5.83 149.81 5.83 149.24 5.29 Z" />
<path fill="#404040" opacity="1.00" d=" M 169.20 5.25 C 169.74 5.82 169.74 5.82 169.20 5.25 Z" />
<path fill="#404040" opacity="1.00" d=" M 189.28 5.22 C 189.85 5.75 189.85 5.75 189.28 5.22 Z" />
<path fill="#404040" opacity="1.00" d=" M 209.22 5.33 C 209.85 5.78 209.85 5.78 209.22 5.33 Z" />
<path fill="#404040" opacity="1.00" d=" M 229.25 5.23 C 229.72 5.86 229.72 5.86 229.25 5.23 Z" />
<path fill="#404040" opacity="1.00" d=" M 249.29 5.20 C 249.78 5.81 249.78 5.81 249.29 5.20 Z" />
<path fill="#404040" opacity="1.00" d=" M 269.19 5.30 C 269.78 5.81 269.78 5.81 269.19 5.30 Z" />
<path fill="#404040" opacity="1.00" d=" M 289.23 5.27 C 289.80 5.80 289.80 5.80 289.23 5.27 Z" />
<path fill="#404040" opacity="1.00" d=" M 309.25 5.31 C 309.91 5.71 309.91 5.71 309.25 5.31 Z" />
<path fill="#404040" opacity="1.00" d=" M 329.30 5.15 C 329.80 5.75 329.80 5.75 329.30 5.15 Z" />
<path fill="#404040" opacity="1.00" d=" M 349.24 5.29 C 349.86 5.76 349.86 5.76 349.24 5.29 Z" />
<path fill="#404040" opacity="1.00" d=" M 369.22 5.26 C 369.82 5.75 369.82 5.75 369.22 5.26 Z" />
<path fill="#404040" opacity="1.00" d=" M 389.27 5.29 C 389.81 5.84 389.81 5.84 389.27 5.29 Z" />
<path fill="#404040" opacity="1.00" d=" M 9.29 25.26 C 9.83 25.82 9.83 25.82 9.29 25.26 Z" />
<path fill="#404040" opacity="1.00" d=" M 29.19 25.28 C 29.84 25.71 29.84 25.71 29.19 25.28 Z" />
<path fill="#404040" opacity="1.00" d=" M 49.27 25.23 C 49.80 25.80 49.80 25.80 49.27 25.23 Z" />
<path fill="#404040" opacity="1.00" d=" M 69.18 25.28 C 69.79 25.75 69.79 25.75 69.18 25.28 Z" />
<path fill="#404040" opacity="1.00" d=" M 89.26 25.22 C 89.79 25.80 89.79 25.80 89.26 25.22 Z" />
<path fill="#404040" opacity="1.00" d=" M 109.34 25.17 C 109.67 25.88 109.67 25.88 109.34 25.17 Z" />
<path fill="#404040" opacity="1.00" d=" M 129.24 25.24 C 129.72 25.86 129.72 25.86 129.24 25.24 Z" />
<path fill="#404040" opacity="1.00" d=" M 149.24 25.32 C 149.84 25.82 149.84 25.82 149.24 25.32 Z" />
<path fill="#404040" opacity="1.00" d=" M 169.24 25.21 C 169.74 25.82 169.74 25.82 169.24 25.21 Z" />
<path fill="#404040" opacity="1.00" d=" M 189.22 25.25 C 189.79 25.78 189.79 25.78 189.22 25.25 Z" />
<path fill="#404040" opacity="1.00" d=" M 209.25 25.19 C 209.77 25.77 209.77 25.77 209.25 25.19 Z" />
<path fill="#404040" opacity="1.00" d=" M 229.22 25.33 C 229.86 25.78 229.86 25.78 229.22 25.33 Z" />
<path fill="#404040" opacity="1.00" d=" M 249.22 25.24 C 249.82 25.73 249.82 25.73 249.22 25.24 Z" />
<path fill="#404040" opacity="1.00" d=" M 269.17 25.27 C 269.80 25.73 269.80 25.73 269.17 25.27 Z" />
<path fill="#404040" opacity="1.00" d=" M 289.21 25.25 C 289.75 25.81 289.75 25.81 289.21 25.25 Z" />
<path fill="#404040" opacity="1.00" d=" M 309.23 25.28 C 309.80 25.81 309.80 25.81 309.23 25.28 Z" />
<path fill="#404040" opacity="1.00" d=" M 329.22 25.19 C 329.77 25.73 329.77 25.73 329.22 25.19 Z" />
<path fill="#404040" opacity="1.00" d=" M 349.31 25.23 C 349.73 25.89 349.73 25.89 349.31 25.23 Z" />
<path fill="#404040" opacity="1.00" d=" M 369.23 25.26 C 369.82 25.77 369.82 25.77 369.23 25.26 Z" />
<path fill="#404040" opacity="1.00" d=" M 389.23 25.23 C 389.82 25.74 389.82 25.74 389.23 25.23 Z" />
<path fill="#404040" opacity="1.00" d=" M 9.30 45.29 C 9.89 45.81 9.89 45.81 9.30 45.29 Z" />
<path fill="#404040" opacity="1.00" d=" M 29.22 45.23 C 29.78 45.78 29.78 45.78 29.22 45.23 Z" />
<path fill="#404040" opacity="1.00" d=" M 49.25 45.24 C 49.70 45.89 49.70 45.89 49.25 45.24 Z" />
<path fill="#404040" opacity="1.00" d=" M 69.29 45.17 C 69.74 45.81 69.74 45.81 69.29 45.17 Z" />
<path fill="#404040" opacity="1.00" d=" M 89.20 45.21 C 89.76 45.75 89.76 45.75 89.20 45.21 Z" />
<path fill="#404040" opacity="1.00" d=" M 109.24 45.25 C 109.77 45.82 109.77 45.82 109.24 45.25 Z" />
<path fill="#404040" opacity="1.00" d=" M 129.25 45.23 C 129.83 45.75 129.83 45.75 129.25 45.23 Z" />
<path fill="#404040" opacity="1.00" d=" M 149.25 45.28 C 149.87 45.75 149.87 45.75 149.25 45.28 Z" />
<path fill="#404040" opacity="1.00" d=" M 169.20 45.22 C 169.72 45.81 169.72 45.81 169.20 45.22 Z" />
<path fill="#404040" opacity="1.00" d=" M 189.25 45.21 C 189.80 45.75 189.80 45.75 189.25 45.21 Z" />
<path fill="#404040" opacity="1.00" d=" M 209.27 45.30 C 209.84 45.83 209.84 45.83 209.27 45.30 Z" />
<path fill="#404040" opacity="1.00" d=" M 229.31 45.26 C 229.84 45.83 229.84 45.83 229.31 45.26 Z" />
<path fill="#404040" opacity="1.00" d=" M 249.25 45.32 C 249.89 45.75 249.89 45.75 249.25 45.32 Z" />
<path fill="#404040" opacity="1.00" d=" M 269.26 45.28 C 269.76 45.88 269.76 45.88 269.26 45.28 Z" />
<path fill="#404040" opacity="1.00" d=" M 289.19 45.29 C 289.76 45.82 289.76 45.82 289.19 45.29 Z" />
<path fill="#404040" opacity="1.00" d=" M 309.17 45.37 C 309.80 45.83 309.80 45.83 309.17 45.37 Z" />
<path fill="#404040" opacity="1.00" d=" M 329.24 45.32 C 329.88 45.76 329.88 45.76 329.24 45.32 Z" />
<path fill="#404040" opacity="1.00" d=" M 349.23 45.24 C 349.80 45.78 349.80 45.78 349.23 45.24 Z" />
<path fill="#404040" opacity="1.00" d=" M 369.20 45.29 C 369.82 45.77 369.82 45.77 369.20 45.29 Z" />
<path fill="#404040" opacity="1.00" d=" M 389.30 45.18 C 389.78 45.79 389.78 45.79 389.30 45.18 Z" />
<path fill="#404040" opacity="1.00" d=" M 133.09 45.48 C 133.73 45.60 135.00 45.85 135.63 45.97 C 135.91 79.78 135.63 113.60 135.77 147.42 C 135.10 147.40 133.75 147.37 133.08 147.36 C 133.10 113.40 133.07 79.44 133.09 45.48 Z" />
<path fill="#404040" opacity="1.00" d=" M 45.11 53.68 C 50.67 54.37 53.02 60.17 55.66 64.35 C 56.68 61.24 57.44 57.39 60.61 55.72 C 62.81 54.19 65.81 56.54 65.32 59.04 C 64.89 62.48 61.77 64.63 59.26 66.64 C 64.77 66.84 70.28 65.39 74.27 61.42 C 76.53 61.85 74.63 64.07 73.69 64.78 C 68.83 68.98 62.07 68.89 56.04 68.73 C 49.39 70.21 41.89 70.76 35.98 66.74 C 35.88 66.17 35.67 65.02 35.57 64.45 C 38.87 65.87 42.19 67.64 45.87 67.69 C 48.15 67.85 50.48 67.32 52.72 67.92 C 50.35 65.29 45.81 65.40 43.63 62.30 C 41.42 59.54 43.01 55.95 45.11 53.68 M 45.12 60.64 C 47.19 63.23 50.61 63.96 53.53 65.15 C 51.77 61.57 49.39 58.33 46.49 55.60 C 45.16 56.87 44.00 58.87 45.12 60.64 M 57.87 65.02 C 60.14 63.03 64.78 60.27 62.21 56.87 C 59.55 58.80 58.45 61.92 57.87 65.02 Z" />
<path fill="#404040" opacity="1.00" d=" M 97.92 64.47 C 105.41 64.43 112.91 64.50 120.41 64.43 C 120.32 66.54 120.29 68.66 120.29 70.78 C 114.61 70.84 108.93 70.81 103.25 70.80 C 98.11 88.21 92.66 105.53 87.64 122.98 C 68.51 123.10 49.39 122.80 30.27 122.86 C 25.72 107.99 21.31 93.08 16.93 78.15 C 22.53 78.21 28.14 78.19 33.74 78.17 C 33.64 76.37 33.51 74.57 33.42 72.76 C 40.71 72.16 48.01 71.64 55.31 71.08 C 55.16 73.30 56.60 75.98 54.86 77.85 C 47.96 78.85 40.84 77.98 33.86 78.27 C 34.17 83.78 34.59 89.29 35.11 94.78 C 42.40 94.01 49.73 93.64 57.03 92.96 C 56.83 88.07 55.41 83.10 56.22 78.26 C 56.57 78.16 57.26 77.96 57.61 77.86 C 58.87 82.73 58.73 87.84 59.21 92.83 C 66.46 91.97 73.76 91.66 81.02 90.96 C 80.67 86.71 80.26 82.47 79.87 78.22 C 72.59 78.34 65.32 78.21 58.04 78.30 C 57.83 75.83 57.63 73.36 57.42 70.88 C 64.76 70.30 72.09 69.73 79.42 69.17 C 79.63 72.18 79.89 75.19 80.09 78.20 C 84.73 78.18 89.37 78.19 94.01 78.19 C 95.26 73.60 96.68 69.06 97.92 64.47 M 59.25 95.04 C 59.94 102.27 60.37 109.52 61.04 116.75 C 68.37 116.12 75.72 115.82 83.05 115.17 C 82.25 107.88 81.79 100.56 81.23 93.26 C 73.91 93.97 66.58 94.43 59.25 95.04 M 35.25 96.77 C 35.95 104.09 36.37 111.43 37.04 118.75 C 44.26 118.06 51.51 117.62 58.73 116.97 C 58.12 109.74 57.72 102.49 57.23 95.25 C 49.91 95.89 42.58 96.27 35.25 96.77 Z" />
<path fill="#404040" opacity="1.00" d=" M 9.28 65.21 C 9.76 65.81 9.76 65.81 9.28 65.21 Z" />
<path fill="#404040" opacity="1.00" d=" M 29.26 65.17 C 29.75 65.78 29.75 65.78 29.26 65.17 Z" />
<path fill="#404040" opacity="1.00" d=" M 89.28 65.30 C 89.84 65.84 89.84 65.84 89.28 65.30 Z" />
<path fill="#404040" opacity="1.00" d=" M 129.22 65.24 C 129.77 65.80 129.77 65.80 129.22 65.24 Z" />
<path fill="#404040" opacity="1.00" d=" M 149.65 65.41 C 149.89 65.66 150.37 66.18 150.60 66.44 C 151.50 66.38 153.30 66.25 154.20 66.19 C 154.30 74.65 154.17 83.11 154.27 91.56 C 159.41 91.51 164.55 91.55 169.70 91.52 C 169.70 93.50 169.71 95.48 169.72 97.46 C 162.17 97.48 154.61 97.45 147.06 97.48 C 147.06 87.18 147.10 76.88 147.04 66.58 C 147.69 66.28 149.00 65.70 149.65 65.41 Z" />
<path fill="#404040" opacity="1.00" d=" M 169.24 65.31 C 169.82 65.82 169.82 65.82 169.24 65.31 Z" />
<path fill="#404040" opacity="1.00" d=" M 189.17 65.33 C 189.86 65.70 189.86 65.70 189.17 65.33 Z" />
<path fill="#404040" opacity="1.00" d=" M 209.22 65.24 C 209.75 65.81 209.75 65.81 209.22 65.24 Z" />
<path fill="#404040" opacity="1.00" d=" M 229.25 65.26 C 229.79 65.82 229.79 65.82 229.25 65.26 Z" />
<path fill="#404040" opacity="1.00" d=" M 249.22 65.31 C 249.83 65.78 249.83 65.78 249.22 65.31 Z" />
<path fill="#404040" opacity="1.00" d=" M 256.32 97.49 C 256.30 86.56 256.26 75.62 256.34 64.68 C 258.63 64.70 260.93 64.71 263.24 64.73 C 263.24 75.64 263.23 86.55 263.24 97.46 C 260.93 97.46 258.62 97.47 256.32 97.49 Z" />
<path fill="#404040" opacity="1.00" d=" M 269.17 65.33 C 269.83 65.74 269.83 65.74 269.17 65.33 Z" />
<path fill="#404040" opacity="1.00" d=" M 289.57 65.51 C 289.87 65.63 290.47 65.88 290.76 66.01 C 295.59 65.26 300.50 66.24 304.86 68.38 C 304.10 70.21 303.36 72.04 302.62 73.87 C 298.74 72.12 294.20 70.55 290.03 72.20 C 288.05 72.80 287.52 75.57 288.90 77.03 C 293.69 79.68 299.94 79.07 304.09 82.96 C 307.90 86.92 305.93 93.99 301.09 96.14 C 294.49 99.28 286.45 98.01 280.25 94.49 C 281.02 92.70 281.79 90.91 282.56 89.11 C 286.85 91.39 291.93 93.23 296.77 91.62 C 298.82 91.27 299.82 88.22 298.11 86.90 C 293.81 84.29 288.29 84.73 284.12 81.81 C 280.47 79.41 280.07 73.82 282.53 70.44 C 284.22 68.01 287.20 67.11 289.57 65.51 Z" />
<path fill="#404040" opacity="1.00" d=" M 309.31 65.33 C 309.92 65.81 309.92 65.81 309.31 65.33 Z" />
<path fill="#404040" opacity="1.00" d=" M 310.77 64.71 C 313.00 64.71 315.23 64.71 317.46 64.71 C 317.47 68.46 317.50 72.21 317.41 75.96 C 322.28 71.70 331.58 72.29 334.25 78.74 C 335.99 84.81 334.97 91.24 335.23 97.46 C 332.92 97.46 330.60 97.47 328.29 97.48 C 328.08 92.36 328.84 87.14 327.80 82.09 C 326.35 77.56 318.75 78.55 317.94 83.05 C 316.99 87.79 317.64 92.67 317.47 97.47 C 315.23 97.47 313.00 97.46 310.76 97.46 C 310.77 86.55 310.76 75.63 310.77 64.71 Z" />
<path fill="#404040" opacity="1.00" d=" M 329.32 65.25 C 329.82 65.84 329.82 65.84 329.32 65.25 Z" />
<path fill="#404040" opacity="1.00" d=" M 349.21 65.22 C 349.77 65.76 349.77 65.76 349.21 65.22 Z" />
<path fill="#404040" opacity="1.00" d=" M 369.23 65.27 C 369.75 65.85 369.75 65.85 369.23 65.27 Z" />
<path fill="#404040" opacity="1.00" d=" M 389.32 65.26 C 389.84 65.84 389.84 65.84 389.32 65.26 Z" />
<path fill="#404040" opacity="1.00" d=" M 180.46 73.75 C 184.90 72.64 190.05 73.22 193.58 76.35 C 198.36 80.35 198.96 88.18 195.09 93.00 C 189.47 100.21 176.04 99.06 172.46 90.38 C 169.44 83.86 173.37 75.33 180.46 73.75 M 182.22 79.30 C 176.83 81.35 177.31 90.58 182.98 91.92 C 186.27 92.91 189.35 90.62 190.53 87.66 C 189.75 86.58 188.71 85.10 190.45 84.31 C 190.37 80.29 185.78 77.64 182.22 79.30 Z" />
<path fill="#404040" opacity="1.00" d=" M 203.59 77.51 C 209.05 71.36 220.54 71.70 224.81 79.09 C 223.04 80.05 221.28 81.01 219.51 81.96 C 217.59 79.54 214.31 77.82 211.29 79.35 C 205.73 81.56 206.70 91.54 212.91 91.97 C 215.63 92.75 217.80 90.77 219.51 88.98 C 221.28 89.93 223.03 90.89 224.78 91.87 C 220.37 99.45 208.44 99.54 203.17 92.92 C 199.64 88.56 199.83 81.67 203.59 77.51 Z" />
<path fill="#404040" opacity="1.00" d=" M 227.98 75.93 C 232.57 73.38 238.12 72.47 243.23 73.84 C 246.22 74.66 248.78 77.04 249.40 80.14 C 250.46 85.86 249.73 91.71 249.94 97.48 C 247.78 97.47 245.62 97.46 243.46 97.46 C 243.52 96.73 243.65 95.27 243.71 94.55 C 239.86 98.73 232.25 99.04 228.53 94.58 C 226.14 91.78 227.54 87.95 229.21 85.19 C 233.64 83.40 238.45 83.20 243.17 83.24 C 242.19 76.96 234.43 78.19 230.42 80.64 C 229.60 79.07 228.79 77.50 227.98 75.93 M 235.37 92.63 C 239.04 94.44 243.59 91.69 243.40 87.49 C 240.94 87.47 238.46 87.30 236.01 87.64 C 233.54 88.00 233.10 91.68 235.37 92.63 Z" />
<path fill="#404040" opacity="1.00" d=" M 349.48 73.62 C 353.48 72.79 357.93 73.21 361.29 75.70 C 366.90 79.50 367.80 88.32 363.32 93.32 C 357.63 100.06 344.97 98.96 341.16 90.76 C 337.76 84.04 341.98 74.97 349.48 73.62 M 350.36 79.46 C 345.21 81.78 346.06 91.20 351.93 91.93 C 356.49 93.15 360.24 88.17 359.06 83.95 C 358.67 79.92 353.87 77.55 350.36 79.46 Z" />
<path fill="#404040" opacity="1.00" d=" M 377.35 76.07 C 381.33 72.62 387.50 72.26 391.86 75.22 C 398.41 79.59 398.65 90.58 392.38 95.31 C 388.13 98.58 381.79 98.55 377.66 95.07 C 377.71 98.69 377.69 102.31 377.73 105.93 C 375.50 105.93 373.27 105.94 371.04 105.96 C 371.10 95.14 371.06 84.33 371.06 73.52 C 373.21 73.53 375.36 73.53 377.51 73.54 C 377.47 74.17 377.39 75.44 377.35 76.07 M 381.30 79.37 C 375.43 81.86 377.21 92.59 384.01 92.09 C 389.43 92.20 391.23 85.28 388.80 81.35 C 387.27 78.96 383.81 78.16 381.30 79.37 Z" />
<path fill="#404040" opacity="1.00" d=" M 9.17 85.29 C 9.76 85.80 9.76 85.80 9.17 85.29 Z" />
<path fill="#404040" opacity="1.00" d=" M 49.30 85.31 C 49.87 85.84 49.87 85.84 49.30 85.31 Z" />
<path fill="#404040" opacity="1.00" d=" M 69.30 85.21 C 69.82 85.80 69.82 85.80 69.30 85.21 Z" />
<path fill="#404040" opacity="1.00" d=" M 109.29 85.22 C 109.77 85.84 109.77 85.84 109.29 85.22 Z" />
<path fill="#404040" opacity="1.00" d=" M 129.25 85.17 C 129.74 85.78 129.74 85.78 129.25 85.17 Z" />
<path fill="#404040" opacity="1.00" d=" M 169.32 85.19 C 169.74 85.85 169.74 85.85 169.32 85.19 Z" />
<path fill="#404040" opacity="1.00" d=" M 209.23 85.23 C 209.74 85.81 209.74 85.81 209.23 85.23 Z" />
<path fill="#404040" opacity="1.00" d=" M 269.24 85.18 C 269.76 85.76 269.76 85.76 269.24 85.18 Z" />
<path fill="#404040" opacity="1.00" d=" M 289.28 85.26 C 289.79 85.85 289.79 85.85 289.28 85.26 Z" />
<path fill="#404040" opacity="1.00" d=" M 309.25 85.26 C 309.77 85.85 309.77 85.85 309.25 85.26 Z" />
<path fill="#404040" opacity="1.00" d=" M 349.23 85.31 C 349.83 85.80 349.83 85.80 349.23 85.31 Z" />
<path fill="#404040" opacity="1.00" d=" M 369.23 85.21 C 369.70 85.82 369.70 85.82 369.23 85.21 Z" />
<path fill="#404040" opacity="1.00" d=" M 67.46 98.68 C 71.33 96.21 77.25 98.45 78.22 103.03 C 80.33 108.69 73.56 114.64 68.21 111.79 C 62.73 109.86 62.29 101.26 67.46 98.68 Z" />
<path fill="#404040" opacity="1.00" d=" M 43.40 100.42 C 48.43 97.23 55.57 102.10 54.51 107.94 C 54.06 113.34 47.13 116.35 42.81 113.16 C 38.31 110.33 38.67 102.84 43.40 100.42 Z" />
<path fill="#404040" opacity="1.00" d=" M 9.28 105.24 C 9.78 105.84 9.78 105.84 9.28 105.24 Z" />
<path fill="#404040" opacity="1.00" d=" M 109.30 105.30 C 109.86 105.84 109.86 105.84 109.30 105.30 Z" />
<path fill="#404040" opacity="1.00" d=" M 129.29 105.28 C 129.85 105.82 129.85 105.82 129.29 105.28 Z" />
<path fill="#404040" opacity="1.00" d=" M 149.25 105.23 C 149.81 105.77 149.81 105.77 149.25 105.23 Z" />
<path fill="#404040" opacity="1.00" d=" M 169.27 105.27 C 169.81 105.82 169.81 105.82 169.27 105.27 Z" />
<path fill="#404040" opacity="1.00" d=" M 189.25 105.26 C 189.80 105.80 189.80 105.80 189.25 105.26 Z" />
<path fill="#404040" opacity="1.00" d=" M 209.19 105.29 C 209.78 105.81 209.78 105.81 209.19 105.29 Z" />
<path fill="#404040" opacity="1.00" d=" M 229.24 105.28 C 229.79 105.83 229.79 105.83 229.24 105.28 Z" />
<path fill="#404040" opacity="1.00" d=" M 249.22 105.25 C 249.79 105.78 249.79 105.78 249.22 105.25 Z" />
<path fill="#404040" opacity="1.00" d=" M 269.20 105.29 C 269.85 105.72 269.85 105.72 269.20 105.29 Z" />
<path fill="#404040" opacity="1.00" d=" M 289.32 105.28 C 289.84 105.86 289.84 105.86 289.32 105.28 Z" />
<path fill="#404040" opacity="1.00" d=" M 309.21 105.32 C 309.85 105.77 309.85 105.77 309.21 105.32 Z" />
<path fill="#404040" opacity="1.00" d=" M 329.34 105.21 C 329.82 105.82 329.82 105.82 329.34 105.21 Z" />
<path fill="#404040" opacity="1.00" d=" M 349.23 105.21 C 349.75 105.78 349.75 105.78 349.23 105.21 Z" />
<path fill="#404040" opacity="1.00" d=" M 369.21 105.26 C 369.79 105.78 369.79 105.78 369.21 105.26 Z" />
<path fill="#404040" opacity="1.00" d=" M 389.27 105.27 C 389.81 105.83 389.81 105.83 389.27 105.27 Z" />
<path fill="#404040" opacity="1.00" d=" M 146.93 115.26 C 147.58 115.28 148.89 115.32 149.54 115.34 C 150.98 118.77 152.47 122.18 153.94 125.60 C 155.41 122.15 156.91 118.72 158.39 115.28 C 158.99 115.28 160.19 115.27 160.79 115.27 C 158.82 119.67 156.93 124.10 155.02 128.53 C 153.35 128.52 152.04 127.79 151.64 126.08 C 150.01 122.50 148.53 118.85 146.93 115.26 Z" />
<path fill="#404040" opacity="1.00" d=" M 203.07 114.72 C 203.67 114.72 204.87 114.73 205.46 114.74 C 205.47 119.26 205.46 123.77 205.47 128.29 C 204.87 128.29 203.67 128.30 203.07 128.31 C 203.07 123.78 203.07 119.25 203.07 114.72 Z" />
<path fill="#404040" opacity="1.00" d=" M 217.37 118.12 C 217.92 115.11 220.67 114.36 223.38 114.64 L 223.00 116.27 C 221.37 116.22 220.12 116.84 219.65 118.46 C 220.46 118.50 222.07 118.57 222.88 118.61 C 222.80 119.05 222.64 119.93 222.56 120.37 C 221.95 120.41 220.74 120.51 220.13 120.56 C 219.82 123.13 219.93 125.73 219.91 128.32 C 219.38 128.31 218.30 128.28 217.76 128.27 C 217.76 125.68 217.76 123.09 217.76 120.50 C 217.21 120.45 216.10 120.35 215.55 120.30 C 216.00 119.75 216.91 118.66 217.37 118.12 Z" />
<path fill="#404040" opacity="1.00" d=" M 310.15 114.74 C 310.58 114.74 311.43 114.74 311.86 114.74 C 311.76 119.54 312.68 124.57 311.13 129.19 C 310.58 128.10 310.05 127.00 309.55 125.90 C 310.40 122.23 309.90 118.45 310.15 114.74 Z" />
<path fill="#404040" opacity="1.00" d=" M 257.05 115.27 C 257.66 115.28 258.87 115.30 259.48 115.31 C 259.46 119.05 259.47 122.80 259.46 126.54 C 261.79 126.53 264.13 126.53 266.47 126.53 L 266.47 128.29 C 263.34 128.29 260.20 128.29 257.07 128.30 C 257.07 123.95 257.07 119.61 257.05 115.27 Z" />
<path fill="#404040" opacity="1.00" d=" M 242.46 119.65 C 243.48 119.16 244.50 118.67 245.53 118.19 C 245.58 118.66 245.68 119.60 245.74 120.07 C 244.66 120.57 243.63 121.17 242.66 121.84 C 242.34 123.97 242.47 126.14 242.43 128.29 C 241.85 128.29 240.67 128.30 240.08 128.31 C 240.11 124.79 239.73 121.19 240.64 117.75 C 241.09 118.22 242.01 119.17 242.46 119.65 Z" />
<path fill="#404040" opacity="1.00" d=" M 164.38 119.36 C 167.74 116.80 173.55 119.53 172.80 123.99 C 172.78 127.46 168.97 129.03 165.99 128.22 C 161.85 127.68 160.98 121.44 164.38 119.36 M 165.71 126.56 C 166.44 126.53 167.90 126.48 168.63 126.46 C 169.19 125.86 170.30 124.65 170.86 124.05 C 170.32 122.19 169.43 119.72 166.97 120.42 C 163.77 120.82 164.52 124.57 165.71 126.56 Z" />
<path fill="#404040" opacity="1.00" d=" M 178.42 119.33 C 180.89 117.54 183.99 118.75 186.25 120.26 C 184.73 121.89 182.75 120.55 180.93 120.42 C 178.13 120.72 177.73 125.06 180.02 126.35 C 182.15 126.92 184.40 124.97 186.34 126.56 C 184.11 128.28 180.95 129.07 178.39 127.60 C 175.50 125.84 175.59 121.10 178.42 119.33 Z" />
<path fill="#404040" opacity="1.00" d=" M 188.96 119.74 C 191.50 118.58 195.07 117.45 197.31 119.80 C 198.72 122.35 198.08 125.45 198.28 128.24 C 194.79 127.97 189.72 129.62 188.54 125.02 C 190.45 122.59 193.47 122.65 196.28 122.54 C 195.19 118.80 191.09 121.80 188.96 119.74 M 191.58 124.41 C 191.54 124.99 191.45 126.13 191.41 126.70 C 193.52 127.15 195.74 126.66 196.25 124.27 C 194.69 124.29 193.13 124.34 191.58 124.41 Z" />
<path fill="#404040" opacity="1.00" d=" M 227.41 119.33 C 230.79 116.83 236.54 119.53 235.83 123.98 C 235.73 128.38 229.82 129.63 226.87 127.19 C 224.53 125.19 224.81 120.99 227.41 119.33 M 227.49 121.70 C 227.97 123.30 226.99 126.90 229.96 125.38 L 229.38 127.01 C 231.40 126.66 234.16 125.62 233.53 123.00 C 233.45 119.77 229.31 119.99 227.49 121.70 Z" />
<path fill="#404040" opacity="1.00" d=" M 271.36 119.27 C 275.12 116.60 281.09 120.27 279.48 124.92 C 278.22 129.61 271.61 129.11 269.04 125.81 C 269.23 123.51 268.92 120.53 271.36 119.27 M 272.29 121.17 C 269.23 123.86 273.87 128.88 276.61 125.63 C 279.30 122.90 275.03 118.30 272.29 121.17 Z" />
<path fill="#404040" opacity="1.00" d=" M 283.85 126.25 C 281.75 123.11 284.12 118.38 287.98 118.44 C 290.16 118.01 291.80 119.59 293.12 121.06 C 291.21 121.00 289.34 120.51 287.44 120.45 C 285.87 120.86 285.14 122.48 285.47 124.00 C 285.19 126.25 288.22 126.39 289.66 127.01 L 289.04 125.28 C 289.77 125.39 291.24 125.61 291.97 125.71 C 291.93 126.23 291.85 127.26 291.81 127.78 C 289.16 128.31 285.48 129.08 283.85 126.25 Z" />
<path fill="#404040" opacity="1.00" d=" M 295.70 119.79 C 298.33 118.45 302.59 117.30 304.50 120.36 C 305.19 122.93 304.87 125.64 304.96 128.27 C 302.16 127.77 298.02 129.44 296.18 126.80 C 294.80 122.58 300.05 122.50 302.83 122.67 C 302.68 122.13 302.38 121.07 302.23 120.54 C 300.05 120.33 297.66 121.08 295.70 119.79 M 298.07 124.56 C 297.87 127.25 300.50 126.89 302.38 126.56 C 302.50 125.96 302.75 124.76 302.87 124.16 C 301.26 124.26 299.66 124.39 298.07 124.56 Z" />
<path fill="#404040" opacity="1.00" d=" M 9.26 125.26 C 9.79 125.83 9.79 125.83 9.26 125.26 Z" />
<path fill="#404040" opacity="1.00" d=" M 29.18 125.29 C 29.84 125.71 29.84 125.71 29.18 125.29 Z" />
<path fill="#404040" opacity="1.00" d=" M 49.26 125.23 C 49.77 125.81 49.77 125.81 49.26 125.23 Z" />
<path fill="#404040" opacity="1.00" d=" M 69.24 125.24 C 69.72 125.86 69.72 125.86 69.24 125.24 Z" />
<path fill="#404040" opacity="1.00" d=" M 89.22 125.33 C 89.82 125.82 89.82 125.82 89.22 125.33 Z" />
<path fill="#404040" opacity="1.00" d=" M 109.27 125.19 C 109.73 125.82 109.73 125.82 109.27 125.19 Z" />
<path fill="#404040" opacity="1.00" d=" M 129.21 125.30 C 129.80 125.80 129.80 125.80 129.21 125.30 Z" />
<path fill="#404040" opacity="1.00" d=" M 149.30 125.23 C 149.84 125.79 149.84 125.79 149.30 125.23 Z" />
<path fill="#404040" opacity="1.00" d=" M 209.21 125.31 C 209.79 125.83 209.79 125.83 209.21 125.31 Z" />
<path fill="#404040" opacity="1.00" d=" M 249.20 125.21 C 249.76 125.75 249.76 125.75 249.20 125.21 Z" />
<path fill="#404040" opacity="1.00" d=" M 329.31 125.18 C 329.73 125.83 329.73 125.83 329.31 125.18 Z" />
<path fill="#404040" opacity="1.00" d=" M 349.22 125.26 C 349.86 125.71 349.86 125.71 349.22 125.26 Z" />
<path fill="#404040" opacity="1.00" d=" M 369.27 125.30 C 369.89 125.78 369.89 125.78 369.27 125.30 Z" />
<path fill="#404040" opacity="1.00" d=" M 389.28 125.26 C 389.77 125.86 389.77 125.86 389.28 125.26 Z" />
<path fill="#404040" opacity="1.00" d=" M 37.36 126.44 C 41.42 124.24 46.92 127.36 47.02 132.00 C 47.53 137.07 41.23 140.95 36.96 138.07 C 32.55 135.71 32.80 128.49 37.36 126.44 Z" />
<path fill="#404040" opacity="1.00" d=" M 74.37 126.51 C 78.38 124.22 84.05 127.27 84.07 131.96 C 84.71 136.96 78.40 140.97 74.18 138.11 C 69.71 135.83 69.82 128.64 74.37 126.51 Z" />
<path fill="#404040" opacity="1.00" d=" M 9.29 145.22 C 9.74 145.85 9.74 145.85 9.29 145.22 Z" />
<path fill="#404040" opacity="1.00" d=" M 29.22 145.28 C 29.82 145.79 29.82 145.79 29.22 145.28 Z" />
<path fill="#404040" opacity="1.00" d=" M 49.22 145.23 C 49.78 145.78 49.78 145.78 49.22 145.23 Z" />
<path fill="#404040" opacity="1.00" d=" M 69.23 145.29 C 69.75 145.88 69.75 145.88 69.23 145.29 Z" />
<path fill="#404040" opacity="1.00" d=" M 89.29 145.22 C 89.78 145.83 89.78 145.83 89.29 145.22 Z" />
<path fill="#404040" opacity="1.00" d=" M 109.27 145.27 C 109.82 145.82 109.82 145.82 109.27 145.27 Z" />
<path fill="#404040" opacity="1.00" d=" M 129.21 145.33 C 129.79 145.84 129.79 145.84 129.21 145.33 Z" />
<path fill="#404040" opacity="1.00" d=" M 149.29 145.25 C 149.79 145.84 149.79 145.84 149.29 145.25 Z" />
<path fill="#404040" opacity="1.00" d=" M 169.21 145.33 C 169.83 145.80 169.83 145.80 169.21 145.33 Z" />
<path fill="#404040" opacity="1.00" d=" M 189.19 145.28 C 189.81 145.74 189.81 145.74 189.19 145.28 Z" />
<path fill="#404040" opacity="1.00" d=" M 209.29 145.21 C 209.75 145.83 209.75 145.83 209.29 145.21 Z" />
<path fill="#404040" opacity="1.00" d=" M 229.30 145.20 C 229.82 145.78 229.82 145.78 229.30 145.20 Z" />
<path fill="#404040" opacity="1.00" d=" M 249.24 145.32 C 249.84 145.82 249.84 145.82 249.24 145.32 Z" />
<path fill="#404040" opacity="1.00" d=" M 269.23 145.26 C 269.78 145.80 269.78 145.80 269.23 145.26 Z" />
<path fill="#404040" opacity="1.00" d=" M 289.25 145.22 C 289.75 145.82 289.75 145.82 289.25 145.22 Z" />
<path fill="#404040" opacity="1.00" d=" M 309.33 145.20 C 309.72 145.87 309.72 145.87 309.33 145.20 Z" />
<path fill="#404040" opacity="1.00" d=" M 329.18 145.20 C 329.77 145.70 329.77 145.70 329.18 145.20 Z" />
<path fill="#404040" opacity="1.00" d=" M 349.24 145.26 C 349.82 145.78 349.82 145.78 349.24 145.26 Z" />
<path fill="#404040" opacity="1.00" d=" M 369.29 145.25 C 369.88 145.75 369.88 145.75 369.29 145.25 Z" />
<path fill="#404040" opacity="1.00" d=" M 389.27 145.23 C 389.74 145.85 389.74 145.85 389.27 145.23 Z" />
<path fill="#404040" opacity="1.00" d=" M 9.24 165.27 C 9.80 165.82 9.80 165.82 9.24 165.27 Z" />
<path fill="#404040" opacity="1.00" d=" M 29.29 165.27 C 29.84 165.82 29.84 165.82 29.29 165.27 Z" />
<path fill="#404040" opacity="1.00" d=" M 49.19 165.33 C 49.83 165.78 49.83 165.78 49.19 165.33 Z" />
<path fill="#404040" opacity="1.00" d=" M 69.25 165.28 C 69.87 165.75 69.87 165.75 69.25 165.28 Z" />
<path fill="#404040" opacity="1.00" d=" M 89.26 165.23 C 89.83 165.76 89.83 165.76 89.26 165.23 Z" />
<path fill="#404040" opacity="1.00" d=" M 109.25 165.22 C 109.78 165.79 109.78 165.79 109.25 165.22 Z" />
<path fill="#404040" opacity="1.00" d=" M 129.22 165.22 C 129.76 165.78 129.76 165.78 129.22 165.22 Z" />
<path fill="#404040" opacity="1.00" d=" M 149.30 165.22 C 149.73 165.86 149.73 165.86 149.30 165.22 Z" />
<path fill="#404040" opacity="1.00" d=" M 169.20 165.25 C 169.78 165.77 169.78 165.77 169.20 165.25 Z" />
<path fill="#404040" opacity="1.00" d=" M 189.31 165.26 C 189.83 165.84 189.83 165.84 189.31 165.26 Z" />
<path fill="#404040" opacity="1.00" d=" M 209.25 165.20 C 209.74 165.80 209.74 165.80 209.25 165.20 Z" />
<path fill="#404040" opacity="1.00" d=" M 229.32 165.28 C 229.81 165.88 229.81 165.88 229.32 165.28 Z" />
<path fill="#404040" opacity="1.00" d=" M 249.27 165.25 C 249.75 165.86 249.75 165.86 249.27 165.25 Z" />
<path fill="#404040" opacity="1.00" d=" M 269.25 165.28 C 269.78 165.85 269.78 165.85 269.25 165.28 Z" />
<path fill="#404040" opacity="1.00" d=" M 289.29 165.22 C 289.71 165.88 289.71 165.88 289.29 165.22 Z" />
<path fill="#404040" opacity="1.00" d=" M 309.24 165.30 C 309.88 165.75 309.88 165.75 309.24 165.30 Z" />
<path fill="#404040" opacity="1.00" d=" M 329.28 165.23 C 329.80 165.81 329.80 165.81 329.28 165.23 Z" />
<path fill="#404040" opacity="1.00" d=" M 349.23 165.24 C 349.75 165.82 349.75 165.82 349.23 165.24 Z" />
<path fill="#404040" opacity="1.00" d=" M 369.35 165.23 C 369.72 165.92 369.72 165.92 369.35 165.23 Z" />
<path fill="#404040" opacity="1.00" d=" M 389.22 165.26 C 389.83 165.74 389.83 165.74 389.22 165.26 Z" />
</g>
</svg>
